<?xml version="1.0" encoding="UTF-8"?>
<svg width="16px" height="16px" viewBox="0 0 16 16" version="1.1" xmlns="http://www.w3.org/2000/svg" xmlns:xlink="http://www.w3.org/1999/xlink">
    <title>加</title>
    <g id="页面-1" stroke="none" stroke-width="1" fill="none" fill-rule="evenodd">
        <g id="项目管理" transform="translate(-1345.000000, -179.000000)" fill-rule="nonzero">
            <g id="新增icon" transform="translate(1335.000000, 171.000000)">
                <g id="加" transform="translate(10.000000, 8.000000)">
                    <rect id="矩形" fill="#000000" opacity="0" x="0" y="0" width="16" height="16"></rect>
                    <path d="M14.1595646,8.83957791 L8.83957791,8.83957791 L8.83957791,14.1595646 C8.83957791,14.4689638 8.46353884,14.9995625 7.99958,14.9995625 C7.53590116,14.9995625 7.15958209,14.4689638 7.15958209,14.1595646 L7.15958209,8.83957791 L1.83959541,8.83957791 C1.53047617,8.83957791 0.9995975,8.46353884 0.9995975,7.99958 C0.9995975,7.53562116 1.53047617,7.15958209 1.83959541,7.15958209 L7.15958209,7.15958209 L7.15958209,1.83959541 C7.15958209,1.53047617 7.53590116,0.9995975 7.99958,0.9995975 C8.46353884,0.9995975 8.83957791,1.53047617 8.83957791,1.83959541 L8.83957791,7.15958209 L14.1595646,7.15958209 C14.4686838,7.15958209 14.9995625,7.53562116 14.9995625,7.99958 C14.9995625,8.46353884 14.4686838,8.83957791 14.1595646,8.83957791 Z" id="路径" fill="#FFFFFF"></path>
                </g>
            </g>
        </g>
    </g>
</svg>