<?xml version="1.0" encoding="UTF-8"?>
<svg width="14px" height="14px" viewBox="0 0 14 14" version="1.1" xmlns="http://www.w3.org/2000/svg" xmlns:xlink="http://www.w3.org/1999/xlink">
    <title>形状</title>
    <g id="页面-1" stroke="none" stroke-width="1" fill="none" fill-rule="evenodd">
        <g id="网络管理" transform="translate(-1360.000000, -131.000000)" fill="#FF8400" fill-rule="nonzero">
            <g id="编组-13" transform="translate(1350.000000, 122.000000)">
                <path d="M17.696535,11.1 L23.3,11.1 C23.6865925,11.1 24,11.4134075 24,11.8 C24,12.1865925 23.6865925,12.5 23.3,12.5 L10.7,12.5 C10.3134075,12.5 10,12.1865925 10,11.8 C10,11.4134075 10.3134075,11.1 10.7,11.1 L16.303465,11.1 C16.3011557,11.0767381 16.2999993,11.0533762 16.3,11.03 L16.3,9.7 C16.3,9.3134075 16.6134075,9 17,9 C17.3865925,9 17.7,9.3134075 17.7,9.7 L17.7,11.03 C17.7,11.053625 17.6988275,11.07697 17.696535,11.1 Z M20.57,13.62 C20.57,13.2334075 20.8834075,12.92 21.27,12.92 C21.6565925,12.92 21.97,13.2334075 21.97,13.62 L21.97,21.04 C21.97,22.12248 21.09248,23 20.01,23 L13.99,23 C12.90752,23 12.03,22.12248 12.03,21.04 L12.03,13.62 C12.03,13.2334075 12.3434075,12.92 12.73,12.92 C13.1165925,12.92 13.43,13.2334075 13.43,13.62 L13.43,21.04 C13.43,21.3492775 13.6807225,21.6 13.99,21.6 L20.01,21.6 C20.3192775,21.6 20.57,21.3492775 20.57,21.04 L20.57,13.62 Z M17.77,13.62 C17.77,13.2334075 18.0834075,12.92 18.47,12.92 C18.8565925,12.92 19.17,13.2334075 19.17,13.62 L19.17,19.675 C19.17,20.0615925 18.8565925,20.375 18.47,20.375 C18.0834075,20.375 17.77,20.0615925 17.77,19.675 L17.77,13.62 Z M14.83,13.62 C14.83,13.2334075 15.1434075,12.92 15.53,12.92 C15.9165925,12.92 16.23,13.2334075 16.23,13.62 L16.23,19.675 C16.23,20.0615925 15.9165925,20.375 15.53,20.375 C15.1434075,20.375 14.83,20.0615925 14.83,19.675 L14.83,13.62 Z" id="形状"></path>
            </g>
        </g>
    </g>
</svg>