<?xml version="1.0" encoding="UTF-8"?>
<svg width="12px" height="12px" viewBox="0 0 12 12" version="1.1" xmlns="http://www.w3.org/2000/svg" xmlns:xlink="http://www.w3.org/1999/xlink">
    <title>形状结合</title>
    <g id="页面-1" stroke="none" stroke-width="1" fill="none" fill-rule="evenodd">
        <g id="项目管理-检测中" transform="translate(-185.000000, -243.000000)" fill="#FA6401" fill-rule="nonzero">
            <path d="M191,243 C194.308308,243 197,245.691686 197,248.999985 C197,249.254885 196.793362,249.461523 196.538462,249.461523 C196.283561,249.461523 196.076923,249.254885 196.076923,248.999985 C196.076923,246.200608 193.798769,243.923075 191,243.923075 C188.201231,243.923075 185.923077,246.200608 185.923077,248.999985 C185.923077,251.799363 188.200615,254.076896 191,254.076896 C192.76107,254.082518 194.39777,253.169951 195.318769,251.668902 L195.318769,251.668902 L195.352615,251.612902 C195.389216,251.552545 195.424507,251.491402 195.458462,251.429518 C195.582816,251.207419 195.862885,251.126968 196.086154,251.249211 C196.308823,251.373113 196.389427,251.653714 196.266462,251.876901 C196.226462,251.950132 196.185231,252.020901 196.142769,252.09167 L196.142769,252.09167 L196.104,252.155054 C195.015109,253.92845 193.081006,255.006498 191,255 C187.691692,255 185,252.308285 185,248.999985 C185,245.691686 187.691692,243 191,243 Z M189.545455,246 C189.846701,246 190.090909,246.244208 190.090909,246.545455 L190.090909,251.454545 C190.090909,251.755792 189.846701,252 189.545455,252 C189.244208,252 189,251.755792 189,251.454545 L189,246.545455 C189,246.244208 189.244208,246 189.545455,246 Z M192.455455,246 C192.756701,246 193.000909,246.244208 193.000909,246.545455 L193.000909,251.454545 C193.000909,251.755792 192.756701,252 192.455455,252 C192.154208,252 191.91,251.755792 191.91,251.454545 L191.91,246.545455 C191.91,246.244208 192.154208,246 192.455455,246 Z" id="形状结合"></path>
        </g>
    </g>
</svg>