<?xml version="1.0" encoding="UTF-8"?>
<svg width="15px" height="20px" viewBox="0 0 15 20" version="1.1" xmlns="http://www.w3.org/2000/svg" xmlns:xlink="http://www.w3.org/1999/xlink">
    <title>形状</title>
    <g id="页面-1" stroke="none" stroke-width="1" fill="none" fill-rule="evenodd" opacity="0.752419971">
        <g id="登录页" transform="translate(-830.000000, -373.000000)" fill="#FFFFFF" fill-rule="nonzero">
            <g id="编组-5" transform="translate(830.000000, 373.000000)">
                <path d="M12.7500911,8.24877396 L3.92800777,8.24877396 C4.0796103,6.99687918 2.97924001,1.90726705 7.04337137,1.7833259 C10.9076423,1.63976817 10.3062401,6.42755239 10.3062401,6.42755239 L12.1987678,6.44003567 C12.1987678,6.44003567 12.7487253,0.0312082033 7.04337137,0 C0.816741532,0.309407044 2.27767998,7.25724476 2.08783538,8.24877396 C2.13199587,8.24877396 2.18935899,8.24877396 2.24990895,8.24877396 C1.00749666,8.24877396 0,9.23584485 0,10.4520731 L0,17.7967008 C0,19.0133749 1.00795192,20 2.24990895,20 L12.7500911,20 C13.9925033,20 15,19.0129291 15,17.7967008 L15,10.4520731 C15,9.23584485 13.9920481,8.24877396 12.7500911,8.24877396 Z M8.24981789,14.6553723 L8.24981789,16.328132 C8.24981789,16.7325011 7.91292339,17.0624164 7.5,17.0624164 C7.08707661,17.0624164 6.75018211,16.7325011 6.75018211,16.328132 L6.75018211,14.6553723 C6.30356926,14.4008025 6.00036421,13.9322336 6.00036421,13.3901025 C6.00036421,12.5786893 6.6718769,11.9210878 7.50045526,11.9210878 C8.32903363,11.9210878 9.00054632,12.5786893 9.00054632,13.3901025 C9.00009105,13.9322336 8.696886,14.4008025 8.24981789,14.6553723 Z" id="形状"></path>
            </g>
        </g>
    </g>
</svg>