<?xml version="1.0" encoding="UTF-8"?>
<svg width="14px" height="14px" viewBox="0 0 14 14" version="1.1" xmlns="http://www.w3.org/2000/svg" xmlns:xlink="http://www.w3.org/1999/xlink">
    <title>形状</title>
    <g id="页面-1" stroke="none" stroke-width="1" fill="none" fill-rule="evenodd">
        <g id="网络管理" transform="translate(-1255.000000, -131.000000)" fill="#FF8400" fill-rule="nonzero">
            <g id="编组-9" transform="translate(1245.000000, 122.000000)">
                <path d="M11.4,16.0000024 C11.4,16.3866041 11.0865993,16.7000048 10.7,16.7000048 C10.3134007,16.7000048 10,16.3866041 10,16.0000024 C10,12.1339048 13.1339,9.00000239 17,9.00000239 C19.2035683,8.99818413 21.2789628,10.035622 22.6,11.7993048 L22.6,11.1000048 C22.6,10.7134054 22.9134007,10.4000048 23.3,10.4000048 C23.6865993,10.4000048 24,10.7134054 24,11.1000048 L24,13.9000048 C24,14.2866041 23.6865993,14.6000048 23.3,14.6000048 L20.5,14.6000048 C20.1134007,14.6000048 19.8,14.2866041 19.8,13.9000048 C19.8,13.5134055 20.1134007,13.2000048 20.5,13.2000048 L21.851,13.2000048 C20.5842547,11.003658 17.9998665,9.93244326 15.5507757,10.5885962 C13.1016848,11.2447491 11.3990128,13.46454 11.4,16.0000024 L11.4,16.0000024 Z M22.6,16.0000048 C22.6,15.6134055 22.9134007,15.3000048 23.3,15.3000048 C23.6865993,15.3000048 24,15.6134055 24,16.0000048 C24,19.8661048 20.8661,23.0000072 17,23.0000072 C14.7964317,23.0018254 12.7210372,21.9643876 11.4,20.2007048 L11.4,20.9000048 C11.4,21.2866041 11.0865993,21.6000048 10.7,21.6000048 C10.3134007,21.6000048 10,21.2866041 10,20.9000048 L10,18.1000048 C10,17.7134054 10.3134007,17.4000048 10.7,17.4000048 L13.5,17.4000048 C13.8865993,17.4000048 14.2,17.7134055 14.2,18.1000048 C14.2,18.4866041 13.8865993,18.8000048 13.5,18.8000048 L12.149,18.8000048 C13.4157453,20.9963515 16.0001335,22.0675663 18.4492243,21.4114134 C20.8983152,20.7552604 22.6009872,18.5354696 22.6,16.0000048 L22.6,16.0000048 Z" id="形状"></path>
            </g>
        </g>
    </g>
</svg>