<?xml version="1.0" encoding="UTF-8"?>
<svg width="12px" height="12px" viewBox="0 0 12 12" version="1.1" xmlns="http://www.w3.org/2000/svg" xmlns:xlink="http://www.w3.org/1999/xlink">
    <title>形状结合</title>
    <g id="页面-1" stroke="none" stroke-width="1" fill="none" fill-rule="evenodd">
        <g id="项目管理-等待中" transform="translate(-185.000000, -243.000000)" fill="#438CFF" fill-rule="nonzero">
            <g id="编组-2" transform="translate(50.000000, 175.000000)">
                <g id="开始巡检" transform="translate(135.000000, 68.000000)">
                    <path d="M6,0 C9.30830769,0 12,2.6916857 12,5.99998526 C12,6.25488529 11.7933622,6.46152259 11.5384615,6.46152259 C11.2835609,6.46152259 11.0769231,6.25488529 11.0769231,5.99998526 C11.0769231,3.20060752 8.79876923,0.923074656 6,0.923074656 C3.20123077,0.923074656 0.923076923,3.20060752 0.923076923,5.99998526 C0.923076923,8.799363 3.20061538,11.0768959 6,11.0768959 C7.76106984,11.0825176 9.39777027,10.1699509 10.3187692,8.66890178 L10.3187692,8.66890178 L10.3526154,8.61290192 C10.3892163,8.55254462 10.4245066,8.49140224 10.4584615,8.42951776 C10.5828163,8.20741877 10.862885,8.12696788 11.0861538,8.24921051 C11.3088226,8.37311334 11.3894266,8.65371365 11.2664615,8.87690127 C11.2264615,8.95013186 11.1852308,9.02090092 11.1427692,9.09166998 L11.1427692,9.09166998 L11.104,9.15505444 C10.0151087,10.9284496 8.08100642,12.006498 6,12 C2.69169231,12 0,9.30828483 0,5.99998526 C0,2.6916857 2.69169231,0 6,0 Z M4.62048794,3.57402798 C4.76305754,3.49161056 4.93874966,3.49158241 5.08134564,3.57395412 L5.08134564,3.57395412 L8.84335727,5.74729788 C8.98559673,5.82972614 9.07317073,5.9817321 9.07317073,6.14619496 C9.07317073,6.31065783 8.98559673,6.46266379 8.84335727,6.54509205 L8.84335727,6.54509205 L5.08134564,8.71782116 C4.93894852,8.80096299 4.76294599,8.80140258 4.62013578,8.71897308 C4.47732557,8.63654359 4.38959915,8.48388068 4.39024747,8.31892408 L4.39024747,8.31892408 L4.39024747,3.97346584 C4.39014547,3.80872251 4.47791834,3.65644539 4.62048794,3.57402798 Z M5.31171049,4.77187465 L5.31171049,7.52051527 L7.69153301,6.14619496 L5.31171049,4.77187465 Z" id="形状结合"></path>
                </g>
            </g>
        </g>
    </g>
</svg>