<?xml version="1.0" encoding="UTF-8"?>
<svg width="12px" height="12px" viewBox="0 0 12 12" version="1.1" xmlns="http://www.w3.org/2000/svg" xmlns:xlink="http://www.w3.org/1999/xlink">
    <title>形状结合</title>
    <g id="页面-1" stroke="none" stroke-width="1" fill="none" fill-rule="evenodd">
        <g id="项目管理-测试进度" transform="translate(-50.000000, -255.000000)" fill="#2EBD2B">
            <g id="编组-16" transform="translate(40.000000, 187.000000)">
                <path d="M16,68 C19.3137085,68 22,70.6862915 22,74 C22,77.3137085 19.3137085,80 16,80 C12.6862915,80 10,77.3137085 10,74 C10,70.6862915 12.6862915,68 16,68 Z M19.1776653,72.1935738 C19.0716859,72.0878537 18.8998693,72.0878617 18.7939058,72.1935658 L18.7939058,72.1935658 L15.4039421,75.5750589 L13.5489523,73.7246087 C13.4429808,73.6188966 13.2711643,73.6188966 13.1651929,73.7246087 C13.0592214,73.8303208 13.0592214,74.0017169 13.1651929,74.107429 L13.1651929,74.107429 L15.2120663,76.1492854 C15.265056,76.2021454 15.3344831,76.2285714 15.4039421,76.2285714 C15.4733771,76.2285714 15.542836,76.2021374 15.5958178,76.1492933 L15.5958178,76.1492933 L19.1776573,72.576394 C19.2836367,72.4706819 19.2836367,72.2992859 19.1776653,72.1935738 Z" id="形状结合"></path>
            </g>
        </g>
    </g>
</svg>