<?xml version="1.0" encoding="UTF-8"?>
<svg width="14px" height="14px" viewBox="0 0 14 14" version="1.1" xmlns="http://www.w3.org/2000/svg" xmlns:xlink="http://www.w3.org/1999/xlink">
    <title>形状结合</title>
    <g id="页面-1" stroke="none" stroke-width="1" fill="none" fill-rule="evenodd">
        <g id="项目管理" transform="translate(-1220.000000, -126.000000)" fill="#B6C3D8">
            <path d="M1227,126 C1230.86562,126 1234,129.134375 1234,133 C1234,136.865625 1230.86562,140 1227,140 C1223.13438,140 1220,136.865625 1220,133 C1220,129.134375 1223.13438,126 1227,126 Z M1227,127.1875 C1223.79063,127.1875 1221.1875,129.790625 1221.1875,133 C1221.1875,136.209375 1223.79063,138.8125 1227,138.8125 C1230.20937,138.8125 1232.8125,136.209375 1232.8125,133 C1232.8125,129.790625 1230.20937,127.1875 1227,127.1875 Z M1227.37656,129.375 C1227.44531,129.375 1227.50156,129.43125 1227.50156,129.5 L1227.50156,129.5 L1227.50156,133.367188 L1229.72969,134.978125 C1229.78594,135.017188 1229.79844,135.095313 1229.75781,135.153125 L1229.75781,135.153125 L1229.31094,135.7625 C1229.27031,135.817188 1229.19219,135.829688 1229.13594,135.789063 L1229.13594,135.789063 L1226.55156,133.904688 C1226.51875,133.88125 1226.5,133.84375 1226.5,133.803125 L1226.5,133.803125 L1226.5,129.5 C1226.5,129.43125 1226.55625,129.375 1226.625,129.375 L1226.625,129.375 Z" id="形状结合"></path>
        </g>
    </g>
</svg>