<?xml version="1.0" encoding="UTF-8"?>
<svg width="30px" height="30px" viewBox="0 0 30 30" version="1.1" xmlns="http://www.w3.org/2000/svg" xmlns:xlink="http://www.w3.org/1999/xlink">
    <title>用户</title>
    <g id="页面-1" stroke="none" stroke-width="1" fill="none" fill-rule="evenodd">
        <g id="用户信息-修改密码" transform="translate(-1280.000000, -33.000000)" fill-rule="nonzero">
            <g id="用户" transform="translate(1280.000000, 33.000000)">
                <path d="M0,14.9147727 C0,23.1477273 6.72,29.8295455 15,29.8295455 C23.28,29.8295455 30,23.1477273 30,14.9147727 C30,6.68181818 23.28,0 15,0 C6.72,0 0,6.68181818 0,14.9147727 Z" id="路径" fill="#DEEDFF"></path>
                <path d="M21.24,13.1761364 C21.24,16.9602273 18.4971429,20.0454545 15.1028571,20.0454545 C11.7085714,20.0454545 8.96571429,16.9772727 8.96571429,13.1761364 C8.96571429,9.375 11.7085714,6.30681818 15.1028571,6.30681818 C18.4971429,6.30681818 21.24,9.39204545 21.24,13.1761364" id="路径" fill="#F6CAA9"></path>
                <path d="M12.7371429,18.9545455 L17.4342857,18.9545455 L17.4342857,22.8238636 L12.7371429,22.8238636 L12.7371429,18.9545455 Z M9.75428571,13.5852273 C9.75428571,14.1477273 9.32571429,14.6079545 8.81142857,14.6079545 C8.29714286,14.6079545 7.86857143,14.1477273 7.86857143,13.5852273 C7.86857143,13.0227273 8.29714286,12.5625 8.81142857,12.5625 C9.34285714,12.5454545 9.75428571,13.0056818 9.75428571,13.5852273 M22.3371429,13.5681818 C22.3371429,14.1306818 21.9085714,14.5909091 21.3942857,14.5909091 C20.88,14.5909091 20.4514286,14.1306818 20.4514286,13.5681818 C20.4514286,13.0056818 20.88,12.5454545 21.3942857,12.5454545 C21.9257143,12.5454545 22.3371429,13.0056818 22.3371429,13.5681818" id="形状" fill="#F6CAA9"></path>
                <path d="M12.7371429,19.5170455 C12.7371429,19.5170455 13.6285714,19.9772727 14.9142857,19.9772727 C16.44,20.0454545 17.4171429,19.5340909 17.4171429,19.5340909 L17.4171429,19.9943182 C17.4171429,19.9943182 15.7542857,20.8806818 15,20.8806818 C14.2457143,20.8806818 12.72,19.8409091 12.72,19.8409091 L12.7371429,19.5170455 Z M14.3314286,4.61931818 C14.3314286,4.61931818 10.1828571,5.02840909 10.1314286,7.73863636 C10.08,10.4318182 13.3371429,10.9602273 14.5371429,11.25 C15.7371429,11.5397727 19.0457143,11.9318182 20.9828571,8.79545455 C20.9828571,8.79545455 20.4514286,7.56818182 20.16,6.71590909 C20.0228571,6.49431818 20.3657143,7.09090909 19.2,6.375 C18.0514286,5.64204545 16.4914286,4.44886364 14.3314286,4.61931818" id="形状" fill="#ECB485"></path>
                <path d="M11.4171429,6.08522727 C11.4171429,6.08522727 8.4,6.57954545 8.21142857,9.27272727 C8.04,11.9659091 8.52,12.6818182 8.52,12.6818182 C8.52,12.6818182 9.20571429,12.6818182 9.37714286,13.6875 C9.37714286,13.6875 9.68571429,13.875 9.72,13.6875 C9.77142857,13.3806818 9.44571429,11.9147727 10.08,10.5511364 C10.7142857,9.1875 11.3314286,9 11.3314286,9 L11.4171429,6.08522727 L11.4171429,6.08522727 Z M19.3714286,9.03409091 C19.3714286,9.03409091 20.1771429,10.0738636 20.3142857,11.1136364 C20.4342857,12 20.6057143,13.6534091 20.6057143,13.6534091 C20.6057143,13.6534091 20.8285714,13.8068182 21,13.4318182 C21.1542857,13.0568182 21.12,12.6647727 21.2742857,12.5795455 C22.0628571,12.0511364 21.8571429,9.86931818 21.8228571,9.63068182 C21.6514286,8.65909091 20.8285714,7.07386364 20.8285714,7.07386364 L19.3714286,9.03409091 L19.3714286,9.03409091 Z" id="形状" fill="#3F3F3F"></path>
                <path d="M14.2114286,3.71590909 C14.2114286,3.71590909 9.90857143,3.88636364 9.87428571,6.73295455 C9.84,9.57954545 13.2171429,10.3806818 14.4342857,10.6875 C15.6342857,10.9943182 18.9428571,11.4034091 20.88,8.11363636 C20.88,8.11363636 21.36,6.63068182 21.0685714,5.72727273 C20.9314286,5.48863636 20.2628571,6.32386364 19.0971429,5.55681818 C17.9485714,4.78977273 16.3885714,3.52840909 14.2114286,3.71590909" id="路径" fill="#3F3F3F"></path>
                <path d="M4.26857143,25.3465909 C4.26857143,25.3465909 4.93714286,23.7784091 5.52,23.4034091 C6.10285714,23.0284091 8.04,21.7670455 12.7371429,21.1875 C12.7371429,21.1875 14.9485714,23.5397727 17.4342857,21.1875 C17.4342857,21.1875 22.3885714,21.6988636 24.7714286,23.5056818 C25.3542857,23.9829545 25.7314286,25.3465909 25.7314286,25.3465909 C25.7314286,25.3465909 21.7885714,29.8465909 15.1885714,29.8465909 C7.93714286,29.8295455 4.26857143,25.3465909 4.26857143,25.3465909 Z" id="路径" fill="#238AFF"></path>
            </g>
        </g>
    </g>
</svg>