<?xml version="1.0" encoding="UTF-8"?>
<svg width="12px" height="12px" viewBox="0 0 12 12" version="1.1" xmlns="http://www.w3.org/2000/svg" xmlns:xlink="http://www.w3.org/1999/xlink">
    <title>形状</title>
    <g id="页面-1" stroke="none" stroke-width="1" fill="none" fill-rule="evenodd">
        <g id="项目管理-测试进度" transform="translate(-50.000000, -369.000000)" fill="#CBD4E1" fill-rule="nonzero">
            <g id="编组-9" transform="translate(40.000000, 301.000000)">
                <path d="M16,68 C12.6862915,68 10,70.6862915 10,74 C10,77.3137085 12.6862915,80 16,80 C19.3137085,80 22,77.3137085 22,74 C22,70.6862915 19.3137085,68 16,68 L16,68 Z M18.5364987,75.0305954 L15.5528755,75.0305954 C15.2769084,75.0305954 15.0531928,74.8068799 15.0531928,74.5309128 L15.0531928,70.7589184 C15.0531928,70.58038 15.1483972,70.4153916 15.3030112,70.3261143 C15.4576252,70.2368369 15.6481257,70.2368369 15.8027397,70.3261143 C15.9573537,70.4153916 16.0525865,70.58038 16.0525581,70.7589184 L16.0525581,74.0312302 L18.5364987,74.0312302 C18.7198093,74.0240745 18.8923423,74.1177901 18.9861258,74.2754563 C19.0799093,74.4331225 19.0799093,74.6294647 18.9861258,74.787131 C18.8923423,74.9447972 18.7198093,75.0385128 18.5364987,75.0313571 L18.5364987,75.0305954 Z" id="形状"></path>
            </g>
        </g>
    </g>
</svg>