<?xml version="1.0" encoding="UTF-8"?>
<svg width="20px" height="20px" viewBox="0 0 20 20" version="1.1" xmlns="http://www.w3.org/2000/svg" xmlns:xlink="http://www.w3.org/1999/xlink">
    <title>形状结合</title>
    <g id="页面-1" stroke="none" stroke-width="1" fill="none" fill-rule="evenodd">
        <g id="项目管理-确认测试" transform="translate(-640.000000, -361.000000)" fill="#FF8400" fill-rule="nonzero">
            <g id="编组-9" transform="translate(580.000000, 325.000000)">
                <path d="M66.1714291,36.7621678 C69.9080422,35.2136317 74.2095474,36.06859 77.0699783,38.9283412 C79.9304092,41.7880923 80.7863899,46.0893942 79.2387418,49.8263752 C77.6910938,53.5633562 74.044634,56 69.9998544,56 C64.4796441,55.9960695 60.0052428,51.5227315 60.0000003,46.0025223 C59.9990394,41.9577428 62.434816,38.310704 66.1714291,36.7621678 Z M69.9998544,50.2610152 C69.5601855,50.2610152 69.2037634,50.6174373 69.2037634,51.0571062 L69.2037634,51.5181261 C69.2268535,51.9402705 69.5758908,52.2707381 69.9986662,52.2707381 C70.4214417,52.2707381 70.7704789,51.9402705 70.7935691,51.5181261 L70.7935691,51.0642354 C70.7954682,50.8522776 70.71276,50.6483142 70.563772,50.497542 C70.4147841,50.3467698 70.2118197,50.2616394 69.9998544,50.2610152 Z M67.1077864,40.7506979 C66.124068,41.5391727 65.5451155,42.726723 65.5298627,43.9873426 L65.5298627,44.6242154 C65.5324237,45.0583461 65.8823408,45.4103775 66.3164482,45.4155537 C66.7551907,45.4155556 67.1112295,45.0605796 67.1125392,44.621839 L67.1125392,43.9849662 C67.1283024,43.1993981 67.4943866,42.4619999 68.1106235,41.9745393 C68.8035832,41.3962631 69.7192674,41.1590573 70.6058342,41.3281609 C71.6989741,41.5396597 72.6328958,42.4260536 72.8277599,43.4336435 C73.0787151,44.5514964 72.5954432,45.7058204 71.6229296,46.3114531 C70.3349256,47.0861566 69.267926,47.8204615 69.267926,48.9611292 C69.2910161,49.3832736 69.6400534,49.7137413 70.0628288,49.7137413 C70.4856042,49.7137413 70.8346415,49.3832736 70.8577316,48.9611292 C70.8577316,48.7377485 71.3900432,48.3052453 72.4404081,47.6731252 C73.9871058,46.7256257 74.7680486,44.9056479 74.3890488,43.1318418 C74.068236,41.4873791 72.6376486,40.1043195 70.9100122,39.7692483 C69.5596254,39.5119159 68.1649162,39.8719252 67.1077864,40.7506979 Z" id="形状结合"></path>
            </g>
        </g>
    </g>
</svg>