<?xml version="1.0" encoding="UTF-8"?>
<svg width="30px" height="30px" viewBox="0 0 30 30" version="1.1" xmlns="http://www.w3.org/2000/svg" xmlns:xlink="http://www.w3.org/1999/xlink">
    <title>形状结合</title>
    <g id="页面-1" stroke="none" stroke-width="1" fill="none" fill-rule="evenodd">
        <g id="项目管理-配置网络2" transform="translate(-1092.000000, -162.000000)" fill="#0276F7">
            <path d="M1122,162 L1122,192 L1096,192 C1093.79086,192 1092,190.209139 1092,188 L1092,166 C1092,163.790861 1093.79086,162 1096,162 L1122,162 Z M1115.16662,183.048534 L1098.83338,183.048534 C1098.74171,183.048534 1098.66669,183.126311 1098.66669,183.222144 L1098.66669,183.222144 L1098.66669,184.437415 C1098.66516,184.531237 1098.73957,184.608749 1098.83338,184.611025 L1098.83338,184.611025 L1115.16662,184.611025 C1115.26043,184.608749 1115.33484,184.531237 1115.33331,184.437415 L1115.33331,184.437415 L1115.33331,183.222144 C1115.33331,183.126311 1115.25829,183.048534 1115.16662,183.048534 L1115.16662,183.048534 Z M1109.16665,178.491615 L1099.16671,178.491615 C1099.07504,178.491615 1099.00002,178.569392 1099.00002,178.665225 L1099.00002,178.665225 L1099.00002,179.880496 C1098.99849,179.974318 1099.0729,180.05183 1099.16671,180.054106 L1099.16671,180.054106 L1109.16665,180.054106 C1109.26046,180.05183 1109.33487,179.974318 1109.33334,179.880496 L1109.33334,179.880496 L1109.33334,178.665225 C1109.33334,178.569392 1109.25832,178.491615 1109.16665,178.491615 L1109.16665,178.491615 Z M1114.99995,174.298583 C1114.99995,174.137473 1114.82079,174.048585 1114.69996,174.148584 L1114.69996,174.148584 L1111.44303,176.82218 C1111.39865,176.859653 1111.37304,176.914786 1111.37304,176.972874 C1111.37304,177.030961 1111.39865,177.086094 1111.44303,177.123567 L1111.44303,177.123567 L1114.69996,179.795774 C1114.82218,179.895774 1114.99995,179.804108 1114.99995,179.642997 L1114.99995,179.642997 Z M1109.16665,173.890252 L1099.16671,173.890252 C1099.07504,173.890252 1099.00002,173.969418 1099.00002,174.063862 L1099.00002,174.063862 L1099.00002,175.279133 C1098.99849,175.372955 1099.0729,175.450467 1099.16671,175.452743 L1099.16671,175.452743 L1109.16665,175.452743 C1109.26046,175.450467 1109.33487,175.372955 1109.33334,175.279133 L1109.33334,175.279133 L1109.33334,174.063862 C1109.33334,173.969418 1109.25832,173.890252 1109.16665,173.890252 L1109.16665,173.890252 Z M1115.16662,169.333333 L1098.83338,169.333333 C1098.74171,169.333333 1098.66669,169.411111 1098.66669,169.506943 L1098.66669,169.506943 L1098.66669,170.722214 C1098.66516,170.816036 1098.73957,170.893549 1098.83338,170.895825 L1098.83338,170.895825 L1115.16662,170.895825 C1115.26043,170.893549 1115.33484,170.816036 1115.33331,170.722214 L1115.33331,170.722214 L1115.33331,169.506943 C1115.33331,169.411111 1115.25829,169.333333 1115.16662,169.333333 L1115.16662,169.333333 Z" id="形状结合"></path>
        </g>
    </g>
</svg>