<?xml version="1.0" encoding="UTF-8"?>
<svg width="25px" height="25px" viewBox="0 0 25 25" version="1.1" xmlns="http://www.w3.org/2000/svg" xmlns:xlink="http://www.w3.org/1999/xlink">
    <title>形状结合</title>
    <g id="页面-1" stroke="none" stroke-width="1" fill="none" fill-rule="evenodd">
        <g id="项目管理-配置测试项" transform="translate(-1343.000000, -436.000000)" fill="#0076FF" fill-rule="nonzero">
            <path d="M1355.49985,436 C1362.40332,436 1367.99968,441.596362 1367.99968,448.499854 C1367.99968,455.403296 1362.40332,460.999683 1355.49985,460.999683 C1348.59639,460.999683 1343,455.40332 1343,448.499854 C1343,441.596362 1348.59636,436 1355.49985,436 Z M1355.49985,437.464844 C1354.0095,437.464844 1352.56448,437.756396 1351.20498,438.331421 C1349.89111,438.887158 1348.71084,439.683008 1347.69692,440.696924 C1346.68301,441.71084 1345.88713,442.891113 1345.33142,444.20498 C1344.7564,445.564478 1344.46484,447.009497 1344.46484,448.499854 C1344.46484,449.99021 1344.7564,451.435205 1345.33142,452.794727 C1345.88716,454.108569 1346.68301,455.288843 1347.69692,456.302759 C1348.71082,457.316675 1349.89111,458.112524 1351.20498,458.668262 C1352.56448,459.243286 1354.0095,459.534839 1355.49985,459.534839 C1356.99021,459.534839 1358.43521,459.243286 1359.79473,458.668262 C1361.10857,458.112524 1362.28884,457.31665 1363.30276,456.302759 C1364.31667,455.288843 1365.11252,454.108569 1365.66826,452.794727 C1366.24329,451.435205 1366.53484,449.99021 1366.53484,448.499854 C1366.53484,447.009497 1366.24329,445.564478 1365.66826,444.20498 C1365.11252,442.891138 1364.31665,441.71084 1363.30276,440.696924 C1362.28884,439.683008 1361.10857,438.887158 1359.79473,438.331421 C1358.43521,437.756396 1356.99021,437.464844 1355.49985,437.464844 Z M1355.49983,441.579297 C1356.07314,441.579297 1356.53792,442.044067 1356.53792,442.617383 L1356.53732,447.461297 L1361.3823,447.461768 C1361.95562,447.461768 1362.42039,447.926538 1362.42039,448.499854 C1362.42039,449.073169 1361.95562,449.537939 1361.3823,449.537939 L1356.53732,449.537297 L1356.53792,454.3823 C1356.53794,454.955615 1356.07317,455.420386 1355.49985,455.420386 C1354.92654,455.420386 1354.46177,454.955615 1354.46177,454.3823 L1354.46132,449.537297 L1349.61741,449.537939 C1349.04409,449.537939 1348.57932,449.073193 1348.57932,448.499854 C1348.57932,447.926538 1349.04409,447.461768 1349.61741,447.461768 L1354.46132,447.461297 L1354.46177,442.617383 C1354.46177,442.044092 1354.92651,441.579297 1355.49983,441.579297 Z" id="形状结合"></path>
        </g>
    </g>
</svg>