<?xml version="1.0" encoding="UTF-8"?>
<svg width="17px" height="17px" viewBox="0 0 17 17" version="1.1" xmlns="http://www.w3.org/2000/svg" xmlns:xlink="http://www.w3.org/1999/xlink">
    <title>微功耗</title>
    <g id="页面-1" stroke="none" stroke-width="1" fill="none" fill-rule="evenodd">
        <g id="项目管理-配置网络1" transform="translate(-265.000000, -404.000000)" fill-rule="nonzero">
            <g id="编组-12" transform="translate(237.000000, 180.000000)">
                <g id="微功耗" transform="translate(28.000000, 224.000000)">
                    <path d="M15.238827,13.3323317 C14.976121,13.3323317 14.7603267,13.1165375 14.7603267,12.8538314 L15.8468039,4.59735577 C15.8468039,4.33464973 16.0625981,4.11885547 16.3253042,4.11885547 C16.5880102,4.11885547 16.8038045,4.33464973 16.8038045,4.59735577 L15.7173273,12.8538314 C15.7173273,13.1165375 15.5015331,13.3323317 15.238827,13.3323317 Z" id="路径" fill="#FDE7E7"></path>
                    <path d="M15.238827,13.4786965 C14.8954327,13.4786965 14.6158384,13.1991022 14.6158384,12.8557079 L15.704192,4.57859105 C15.7023155,4.25396144 15.9819098,3.97436715 16.3271806,3.97436715 C16.670575,3.97436715 16.9501693,4.25396144 16.9501693,4.59735577 L15.8618156,12.8744726 C15.8618156,13.1972258 15.5822214,13.4786965 15.238827,13.4786965 Z M16.3271806,4.2633438 C16.1432864,4.2633438 15.9931687,4.41346154 15.9931687,4.59735577 L14.9048151,12.8744726 C14.9066915,13.0396021 15.0549328,13.1897199 15.238827,13.1897199 C15.4227213,13.1897199 15.572839,13.0396021 15.572839,12.8557079 L16.6611926,4.57859105 C16.6593161,4.41346154 16.5110749,4.2633438 16.3271806,4.2633438 Z" id="形状" fill="#E84848"></path>
                    <path d="M12.784402,12.0225545 C12.5216959,12.0225545 12.3059017,11.8067602 12.3059017,11.5440542 L13.3923788,3.28757849 C13.3923788,3.02487245 13.6081731,2.8090782 13.8708791,2.8090782 C14.1335852,2.8090782 14.3493794,3.02487245 14.3493794,3.28757849 L13.2629023,11.5440542 C13.2629023,11.8067602 13.047108,12.0225545 12.784402,12.0225545 Z" id="路径" fill="#FDE7E7"></path>
                    <path d="M12.784402,12.1670428 C12.4410077,12.1670428 12.1614134,11.8874485 12.1614134,11.5440542 L13.249767,3.2669373 C13.2478905,2.94230769 13.5274848,2.6627134 13.8727556,2.6627134 C14.2161499,2.6627134 14.4957442,2.94230769 14.4957442,3.28570202 L13.4073906,11.5628189 C13.4073906,11.8874485 13.1277963,12.1670428 12.784402,12.1670428 Z M13.8708791,2.95169005 C13.6869849,2.95169005 13.5368672,3.10180779 13.5368672,3.28570202 L12.4485135,11.5628189 C12.45039,11.7279484 12.5986313,11.8780661 12.7825255,11.8780661 C12.9664197,11.8780661 13.1165375,11.7279484 13.1165375,11.5440542 L14.2048911,3.2669373 C14.2048911,3.10180779 14.0547734,2.95169005 13.8708791,2.95169005 Z" id="形状" fill="#E84848"></path>
                    <path d="M10.4425652,10.6433477 C10.1798592,10.6433477 9.96406495,10.4275535 9.96406495,10.1648474 L11.0505421,1.90837176 C11.0505421,1.64566572 11.2663363,1.42987147 11.5290424,1.42987147 C11.7917484,1.42987147 12.0075427,1.64566572 12.0075427,1.90837176 L10.9210655,10.1648474 C10.9210655,10.4275535 10.7052713,10.6433477 10.4425652,10.6433477 Z" id="路径" fill="#FDE7E7"></path>
                    <path d="M10.4425652,10.787836 C10.0991709,10.787836 9.81957663,10.5082418 9.81957663,10.1648474 L10.9079302,1.88773057 C10.9060538,1.56310096 11.1856481,1.28350667 11.5309189,1.28350667 C11.8743132,1.28350667 12.1539075,1.56310096 12.1539075,1.90649529 L11.0655539,10.1836121 C11.0674303,10.5082418 10.7859596,10.787836 10.4425652,10.787836 Z M11.5309189,1.57435979 C11.3470246,1.57435979 11.1969069,1.72447753 11.1969069,1.90837176 L10.1085533,10.1854886 C10.1104297,10.3506181 10.258671,10.5007359 10.4425652,10.5007359 C10.6264595,10.5007359 10.7765772,10.3506181 10.7765772,10.1667239 L11.8649308,1.88960704 C11.8630544,1.72447753 11.7148131,1.57435979 11.5309189,1.57435979 Z" id="形状" fill="#E84848"></path>
                    <path d="M7.82676364,9.36922341 C7.56405759,9.36922341 7.34826334,9.15342916 7.34826334,8.89072312 L8.43474048,0.634247449 C8.43474048,0.371541405 8.65053473,0.155747155 8.91324078,0.155747155 C9.17594682,0.155747155 9.39174107,0.371541405 9.39174107,0.634247449 L8.30526393,8.89072312 C8.30526393,9.15342916 8.08946968,9.36922341 7.82676364,9.36922341 Z" id="路径" fill="#FDE7E7"></path>
                    <path d="M7.82676364,9.51371173 C7.48336931,9.51371173 7.20377502,9.23411745 7.20377502,8.89072312 L8.29212863,0.61360626 C8.29025216,0.288976648 8.56984645,0.00938235871 8.91511725,0.00938235871 C9.25851158,0.00938235871 9.53810587,0.288976648 9.53810587,0.632370977 L8.44975226,8.90948783 C8.44975226,9.23411745 8.17015797,9.51371173 7.82676364,9.51371173 L7.82676364,9.51371173 Z M8.91324078,0.300235479 C8.72934655,0.300235479 8.57922881,0.450353218 8.57922881,0.634247449 L7.4908752,8.91136431 C7.49275167,9.07649382 7.64099294,9.22661156 7.82488717,9.22661156 C8.0087814,9.22661156 8.15889914,9.07649382 8.15889914,8.89259959 L9.24725275,0.615482732 C9.24725275,0.448476746 9.09713501,0.300235479 8.91324078,0.300235479 L8.91324078,0.300235479 Z" id="形状" fill="#E84848"></path>
                    <path d="M14.1880028,3.3007138 C14.1842499,3.31760204 14.176744,3.353255 14.1467205,3.38140208 C14.1317087,3.39641385 14.112944,3.40391974 14.0904263,3.4133021 C13.9534439,3.47147272 13.7507849,3.4395727 13.6381966,3.34199617 C13.6288143,3.33449029 13.6100495,3.31947851 13.5931613,3.29320791 C13.5650142,3.25192553 13.5575083,3.21064315 13.5556319,3.18437255 C13.5650142,3.16373136 13.5743966,3.1412137 13.5837789,3.12057251 C13.6025437,3.09054896 13.6344437,3.04176069 13.6926143,3.0079842 C13.814585,2.93292533 13.9966027,2.94418416 14.1035616,3.05114305 C14.180497,3.12432545 14.2030146,3.23503728 14.1880028,3.3007138 L14.1880028,3.3007138 Z M16.6480573,4.6217499 C16.6443044,4.63863815 16.6367985,4.67429111 16.6067749,4.70243819 C16.5917631,4.71744996 16.5729984,4.72495585 16.5504808,4.73433821 C16.4134983,4.79250883 16.2108394,4.76060881 16.0982511,4.66303228 C16.0888687,4.65552639 16.070104,4.64051462 16.0532158,4.61424401 C16.0250687,4.57296164 16.0175628,4.53167926 16.0156863,4.50540865 C16.0250687,4.48476746 16.034451,4.4622498 16.0438334,4.44160861 C16.0625981,4.41158507 16.0944981,4.3627968 16.1526688,4.32902031 C16.2746394,4.25396144 16.4566572,4.26522027 16.5636161,4.37217916 C16.6405514,4.44723803 16.6611926,4.55607339 16.6480573,4.6217499 L16.6480573,4.6217499 Z M11.8405367,1.92338354 C11.8367838,1.94027178 11.8292779,1.97592474 11.7992543,2.00407182 C11.7842425,2.01908359 11.7654778,2.02658948 11.7429602,2.03597184 C11.6059777,2.09414246 11.4033188,2.06224245 11.2907305,1.96466591 C11.2813481,1.95716003 11.2625834,1.94214825 11.2456952,1.91587765 C11.2175481,1.87459527 11.2100422,1.83331289 11.2081657,1.80704229 C11.2175481,1.7864011 11.2269304,1.76388344 11.2363128,1.74324225 C11.2550775,1.7132187 11.2869775,1.66443044 11.3451482,1.63065394 C11.4671188,1.55559507 11.6491366,1.56685391 11.7560955,1.67381279 C11.8349073,1.74887166 11.8555485,1.8595835 11.8405367,1.92338354 L11.8405367,1.92338354 Z M9.2434998,0.65676511 C9.23974686,0.673653356 9.23224097,0.709306319 9.20221743,0.737453395 C9.18720565,0.752465169 9.16844093,0.759971056 9.14592327,0.769353414 C9.00894084,0.827524038 8.80628189,0.795624019 8.69369358,0.698047488 C8.68431122,0.690541601 8.66554651,0.675529827 8.64865826,0.649259223 C8.62051119,0.607976845 8.6130053,0.566694466 8.61112883,0.540423862 C8.62051119,0.519782673 8.62989354,0.497265012 8.6392759,0.476623823 C8.65804062,0.446600275 8.68994064,0.397812009 8.74811126,0.364035518 C8.87008193,0.288976648 9.05209969,0.300235479 9.15905858,0.407194368 C9.23599392,0.480376766 9.25851158,0.591088599 9.2434998,0.65676511 L9.2434998,0.65676511 Z" id="形状" fill="#FFFFFF"></path>
                    <path d="M5.96155073,6.37625098 L0.795624019,9.37860577 C0.403441425,9.60753532 0.16137657,10.0259885 0.15948935,10.4800947 C0.157623626,10.9379538 0.401564953,11.3620364 0.797500491,11.590966 L9.15155269,16.4134983 C9.54748823,16.6424279 10.0372474,16.6424279 10.4331829,16.4116219 L15.5991096,13.4092671 C15.9912922,13.1803375 16.233357,12.7618843 16.2352443,12.3077782 C16.23711,11.8499191 15.9931687,11.4258364 15.5972331,11.1969069 L7.24318093,6.37437451 C6.84536892,6.14544496 6.35560979,6.14544496 5.96155073,6.37625098 Z" id="路径" fill="#FDE7E7"></path>
                    <path d="M9.78955308,16.7287456 C9.54373528,16.7287456 9.29791748,16.6649455 9.07837029,16.5392219 L0.724318093,11.7166896 C0.283347233,11.4614894 0.0112588305,10.9886185 0.0131256586,10.4800947 C0.0150117739,9.97720026 0.285223705,9.50620585 0.720565149,9.25288216 L5.88649186,6.25052737 C6.32558624,5.99532722 6.87163952,5.99345075 7.31261038,6.2486509 L15.6685391,11.0711833 C16.1095099,11.3263834 16.3815983,11.7992543 16.3797315,12.3077782 C16.3778454,12.8106726 16.1076334,13.2797905 15.672292,13.5331142 L10.5063653,16.535469 C10.2849416,16.6649455 10.0372474,16.7287456 9.78955308,16.7287456 L9.78955308,16.7287456 Z M6.03285665,6.50009812 L0.866929945,9.5024529 C0.519782673,9.70323538 0.303976387,10.0785297 0.303976387,10.4782182 C0.302111951,10.8835361 0.519782673,11.2607069 0.870682889,11.4633659 L9.22473509,16.2858983 C9.5756353,16.4885572 10.0091003,16.4866807 10.3600005,16.2840218 L15.5259272,13.281667 C15.8730745,13.0808845 16.0888808,12.7055902 16.0888808,12.3059017 C16.0907452,11.9005838 15.8730745,11.523413 15.5221743,11.320754 L7.16812206,6.49822164 C6.81909831,6.29743917 6.38375687,6.29743917 6.03285665,6.50009812 Z" id="形状" fill="#E84848"></path>
                    <path d="M9.79705897,15.4546213 C9.77266484,15.4546213 9.7482707,15.4489919 9.72387657,15.4358566 L0.906335852,10.3449887 C0.836906397,10.3055828 0.812512265,10.2155122 0.853794643,10.1460827 C0.893200549,10.0766533 0.983271193,10.0522591 1.05270065,10.0935415 L9.87024137,15.1844093 C9.93967082,15.2238152 9.96406495,15.3138859 9.92278257,15.3833153 C9.8946355,15.4283507 9.84584723,15.4546213 9.79705897,15.4546213 L9.79705897,15.4546213 Z" id="路径" fill="#E84848"></path>
                    <path d="M9.79705897,15.4546213 C9.74639423,15.4546213 9.69760597,15.4283507 9.67133536,15.3833153 C9.63005298,15.3138859 9.65444712,15.2256917 9.72387657,15.1844093 L15.37018,11.9024603 C15.4396095,11.8611779 15.5278037,11.885572 15.569086,11.9550015 C15.6103684,12.0244309 15.5859743,12.1126251 15.5165448,12.1539075 L9.87024137,15.4358566 C9.84584723,15.4489919 9.8214531,15.4546213 9.79705897,15.4546213 Z" id="路径" fill="#E84848"></path>
                    <path d="M9.79142955,16.1920747 C9.71074127,16.1920747 9.64506476,16.1263982 9.64694123,16.0457099 L9.65069417,15.3082565 C9.65069417,15.2275682 9.71637068,15.1637682 9.7951825,15.1637682 C9.87587078,15.1637682 9.93967082,15.2294447 9.93967082,15.3101329 L9.93591788,16.0475863 C9.93779435,16.1263982 9.87211784,16.1920747 9.79142955,16.1920747 Z M5.94466248,7.61284586 C5.89587422,7.61284586 5.84708595,7.58845173 5.82081535,7.54341641 C5.77953297,7.47586342 5.80017416,7.38579278 5.86960361,7.3445104 L6.59955112,6.8997866 C6.66898057,6.85850422 6.75717474,6.87914541 6.79845712,6.94857486 C6.8397395,7.01612785 6.81909831,7.10619849 6.74966886,7.14748087 L6.01972135,7.59220467 C5.99720369,7.60721644 5.97093308,7.61284586 5.94466248,7.61284586 L5.94466248,7.61284586 Z M6.70275706,8.03692847 C6.6539688,8.03692847 6.60518053,8.01253434 6.57890993,7.96749902 C6.53762755,7.89994604 6.55826874,7.80987539 6.62769819,7.76859301 L7.3576457,7.32386921 C7.42707516,7.28258683 7.51526933,7.30322802 7.55655171,7.37265748 C7.59783409,7.44021046 7.5771929,7.5302811 7.50776344,7.57156348 L6.77781593,8.01628728 C6.75529827,8.03129906 6.72902767,8.03692847 6.70275706,8.03692847 L6.70275706,8.03692847 Z M7.46085165,8.46288756 C7.41206338,8.46288756 7.36327512,8.43849343 7.33700451,8.3934581 C7.29572214,8.32590512 7.31636332,8.23583448 7.38579278,8.1945521 L8.11574029,7.7498283 C8.18516974,7.70854592 8.27336391,7.72918711 8.31464629,7.79861656 C8.35592867,7.86616954 8.33528748,7.95624019 8.26585803,7.99752257 L7.53591052,8.44224637 C7.51339286,8.45538167 7.48712225,8.46288756 7.46085165,8.46288756 Z M8.21894623,8.88697017 C8.17015797,8.88697017 8.1213697,8.86257604 8.0950991,8.81754072 C8.05381672,8.74998774 8.07445791,8.65991709 8.14388736,8.61863471 L8.87383487,8.17391091 C8.94326432,8.13262853 9.0314585,8.15326972 9.07274088,8.22269918 C9.11402325,8.29025216 9.09338206,8.3803228 9.02395261,8.42160518 L8.2940051,8.86632898 C8.27148744,8.87946429 8.24521684,8.88697017 8.21894623,8.88697017 Z M8.97704082,9.31105279 C8.92825255,9.31105279 8.87946429,9.28665865 8.85319368,9.24162333 C8.8119113,9.17407035 8.83255249,9.08399971 8.90198195,9.04271733 L9.63192945,8.59799352 C9.70135891,8.55671115 9.78955308,8.57735234 9.83083546,8.64678179 C9.87211784,8.71433477 9.85147665,8.80440542 9.78204719,8.84568779 L9.05209969,9.2904116 C9.02958203,9.30542337 9.00331142,9.31105279 8.97704082,9.31105279 Z M9.73701187,9.73701187 C9.68822361,9.73701187 9.63943534,9.71261774 9.61316474,9.66758242 C9.57188236,9.60002943 9.59252355,9.50995879 9.661953,9.46867641 L10.3919005,9.02395261 C10.46133,8.98267023 10.5495241,9.00331142 10.5908065,9.07274088 C10.6320889,9.14029386 10.6114477,9.2303645 10.5420182,9.27164688 L9.81207074,9.71637068 C9.78767661,9.72950599 9.761406,9.73701187 9.73701187,9.73701187 Z" id="形状" fill="#E84848"></path>
                    <path d="M10.4951065,10.1610945 C10.4463182,10.1610945 10.3975299,10.1367004 10.3712593,10.091665 C10.3299769,10.024112 10.3506181,9.93404141 10.4200476,9.89275903 L11.1499951,9.44803522 C11.2194245,9.40675285 11.3076187,9.42739403 11.3489011,9.49682349 C11.3901835,9.56437647 11.3695423,9.65444712 11.3001128,9.69572949 L10.5701653,10.1404533 C10.5457712,10.1535886 10.5195006,10.1610945 10.4951065,10.1610945 Z" id="路径" fill="#E84848"></path>
                    <path d="M11.253201,10.5851771 C11.2044128,10.5851771 11.1556245,10.560783 11.1293539,10.5157476 C11.0880715,10.4481947 11.1087127,10.358124 11.1781422,10.3168416 L11.9080897,9.87211784 C11.9775191,9.83083546 12.0657133,9.85147665 12.1069957,9.9209061 C12.1482781,9.98845909 12.1276369,10.0785297 12.0582074,10.1198121 L11.3282599,10.5645359 C11.3038658,10.5795477 11.2775952,10.5851771 11.253201,10.5851771 Z" id="路径" fill="#E84848"></path>
                    <path d="M12.0112956,11.0111362 C11.9625074,11.0111362 11.9137191,10.9867421 11.8874485,10.9417067 C11.8461661,10.8741537 11.8668073,10.7840831 11.9362368,10.7428007 L12.6661843,10.2980769 C12.7356137,10.2567945 12.8238079,10.2774357 12.8650903,10.3468652 C12.9063726,10.4144182 12.8857315,10.5044888 12.816302,10.5457712 L12.0863545,10.990495 C12.0619604,11.0036303 12.0375662,11.0111362 12.0112956,11.0111362 Z" id="路径" fill="#E84848"></path>
                    <path d="M12.7693902,11.4352188 C12.7206019,11.4352188 12.6718137,11.4108247 12.6455431,11.3657893 C12.6042607,11.2982364 12.6249019,11.2081657 12.6943313,11.1668833 L13.4242788,10.7221595 C13.4937083,10.6808772 13.5819025,10.7015183 13.6231849,10.7709478 C13.6644672,10.8385008 13.643826,10.9285714 13.5743966,10.9698538 L12.8444491,11.4145776 C12.8219314,11.4277129 12.7956608,11.4352188 12.7693902,11.4352188 Z" id="路径" fill="#E84848"></path>
                    <path d="M13.5274848,11.8593014 C13.4786965,11.8593014 13.4299083,11.8349073 13.4036377,11.789872 C13.3623553,11.722319 13.3829965,11.6322483 13.4524259,11.590966 L14.1823734,11.1462422 C14.2518029,11.1049598 14.3399971,11.125601 14.3812794,11.1950304 C14.4225618,11.2625834 14.4019206,11.352654 14.3324912,11.3939364 L13.6025437,11.8386602 C13.580026,11.853672 13.5537554,11.8593014 13.5274848,11.8593014 Z" id="路径" fill="#E84848"></path>
                </g>
            </g>
        </g>
    </g>
</svg>