<?xml version="1.0" encoding="UTF-8"?>
<svg width="17px" height="17px" viewBox="0 0 17 17" version="1.1" xmlns="http://www.w3.org/2000/svg" xmlns:xlink="http://www.w3.org/1999/xlink">
    <title>低功耗</title>
    <g id="页面-1" stroke="none" stroke-width="1" fill="none" fill-rule="evenodd">
        <g id="项目管理-配置网络1" transform="translate(-418.000000, -404.000000)" fill-rule="nonzero">
            <g id="编组-12" transform="translate(237.000000, 180.000000)">
                <g id="低功耗" transform="translate(181.000000, 224.000000)">
                    <path d="M14.9432463,13.0737305 C14.6856359,13.0737305 14.4740273,12.8621219 14.4740273,12.6045114 L15.5394305,4.50818292 C15.5394305,4.25057247 15.7510391,4.03896388 16.0086496,4.03896388 C16.26626,4.03896388 16.4778686,4.25057247 16.4778686,4.50818292 L15.4124654,12.6045114 C15.4124654,12.8621219 15.2008568,13.0737305 14.9432463,13.0737305 Z" id="路径" fill="#D4E4FC"></path>
                    <path d="M14.9432463,13.2172563 C14.6065127,13.2172563 14.3323415,12.9430852 14.3323415,12.6063515 L15.3995848,4.48978217 C15.3977448,4.17144926 15.6719159,3.89727813 16.0104896,3.89727813 C16.3472233,3.89727813 16.6213944,4.17144926 16.6213944,4.50818292 L15.5541511,12.6247523 C15.5541511,12.9412451 15.27998,13.2172563 14.9432463,13.2172563 Z M16.0104896,4.18064963 C15.8301623,4.18064963 15.6829563,4.3278556 15.6829563,4.50818292 L14.615713,12.6247523 C14.6175531,12.7866788 14.762919,12.9338848 14.9432463,12.9338848 C15.1235736,12.9338848 15.2707796,12.7866788 15.2707796,12.6063515 L16.3380229,4.48978217 C16.3361828,4.3278556 16.1908169,4.18064963 16.0104896,4.18064963 Z" id="形状" fill="#0276F7"></path>
                    <path d="M12.5364287,11.7893584 C12.2788182,11.7893584 12.0672096,11.5777498 12.0672096,11.3201393 L13.1326129,3.22381081 C13.1326129,2.96620035 13.3442214,2.75459177 13.6018319,2.75459177 C13.8594423,2.75459177 14.0710509,2.96620035 14.0710509,3.22381081 L13.0056477,11.3201393 C13.0056477,11.5777498 12.7940391,11.7893584 12.5364287,11.7893584 Z" id="路径" fill="#D4E4FC"></path>
                    <path d="M12.5364287,11.9310441 C12.199695,11.9310441 11.9255239,11.656873 11.9255239,11.3201393 L12.9927672,3.20356999 C12.9909271,2.88523707 13.2650982,2.61106594 13.603672,2.61106594 C13.9404056,2.61106594 14.2145768,2.88523707 14.2145768,3.22197073 L13.1473335,11.3385401 C13.1473335,11.656873 12.8731623,11.9310441 12.5364287,11.9310441 Z M13.6018319,2.89443744 C13.4215046,2.89443744 13.2742986,3.04164342 13.2742986,3.22197073 L12.2070553,11.3385401 C12.2088954,11.5004666 12.3542613,11.6476726 12.5345886,11.6476726 C12.7149159,11.6476726 12.8621219,11.5004666 12.8621219,11.3201393 L13.9293652,3.20356999 C13.9293652,3.04164342 13.7821592,2.89443744 13.6018319,2.89443744 Z" id="形状" fill="#0276F7"></path>
                    <path d="M10.2400155,10.4369035 C9.98240504,10.4369035 9.77079645,10.2252949 9.77079645,9.96768444 L10.8361997,1.87135593 C10.8361997,1.61374548 11.0478083,1.40213689 11.3054187,1.40213689 C11.5630292,1.40213689 11.7746378,1.61374548 11.7746378,1.87135593 L10.7092345,9.96768444 C10.7092345,10.2252949 10.4976259,10.4369035 10.2400155,10.4369035 Z" id="路径" fill="#D4E4FC"></path>
                    <path d="M10.2400155,10.5785892 C9.90328183,10.5785892 9.6291107,10.3044181 9.6291107,9.96768444 L10.696354,1.85111511 C10.6945139,1.53278219 10.9686851,1.25861107 11.3072588,1.25861107 C11.6439925,1.25861107 11.9181636,1.53278219 11.9181636,1.86951586 L10.8509203,9.98608519 C10.8527604,10.3044181 10.5767492,10.5785892 10.2400155,10.5785892 Z M11.3072588,1.54382264 C11.1269315,1.54382264 10.9797255,1.69102861 10.9797255,1.87135593 L9.9124822,9.98792526 C9.91432228,10.1498518 10.0596882,10.2970578 10.2400155,10.2970578 C10.4203428,10.2970578 10.5675488,10.1498518 10.5675488,9.96952452 L11.6347921,1.85295518 C11.632952,1.69102861 11.4875861,1.54382264 11.3072588,1.54382264 Z" id="形状" fill="#0276F7"></path>
                    <path d="M7.67495141,9.18749278 C7.41734096,9.18749278 7.20573237,8.9758842 7.20573237,8.71827375 L8.2711356,0.621945236 C8.2711356,0.364334783 8.48274419,0.152726197 8.74035464,0.152726197 C8.99796509,0.152726197 9.20957368,0.364334783 9.20957368,0.621945236 L8.14417045,8.71827375 C8.14417045,8.9758842 7.93256186,9.18749278 7.67495141,9.18749278 Z" id="路径" fill="#D4E4FC"></path>
                    <path d="M7.67495141,9.32917853 C7.33821775,9.32917853 7.06404662,9.05500741 7.06404662,8.71827375 L8.13128993,0.601704414 C8.12944985,0.283371498 8.40362098,0.00920037331 8.74219472,0.00920037331 C9.07892838,0.00920037331 9.3530995,0.283371498 9.3530995,0.620105161 L8.2858562,8.73667449 C8.2858562,9.05500741 8.01168508,9.32917853 7.67495141,9.32917853 L7.67495141,9.32917853 Z M8.74035464,0.294411946 C8.56002732,0.294411946 8.41282135,0.441617919 8.41282135,0.621945236 L7.34557805,8.73851457 C7.34741812,8.90044114 7.49278402,9.04764711 7.67311134,9.04764711 C7.85343865,9.04764711 8.00064463,8.90044114 8.00064463,8.72011382 L9.06788793,0.603544489 C9.06788793,0.439777844 8.92068196,0.294411946 8.74035464,0.294411946 L8.74035464,0.294411946 Z" id="形状" fill="#0276F7"></path>
                    <path d="M13.9128045,3.23669133 C13.9091244,3.253252 13.9017641,3.28821342 13.8723229,3.31581454 C13.8576023,3.33053514 13.8392015,3.33789544 13.8171206,3.34709581 C13.6827952,3.40413812 13.4840671,3.37285685 13.3736626,3.27717297 C13.3644623,3.26981267 13.3460615,3.25509208 13.3295008,3.22933103 C13.3018997,3.18884939 13.2945394,3.14836775 13.2926994,3.1226067 C13.3018997,3.10236588 13.3111001,3.08028498 13.3203005,3.06004416 C13.3387012,3.03060297 13.3699825,2.98276103 13.4270248,2.94963968 C13.5466297,2.8760367 13.7251169,2.88707714 13.8300012,2.9919614 C13.9054442,3.06372431 13.9275251,3.17228872 13.9128045,3.23669133 L13.9128045,3.23669133 Z M16.3251424,4.53210389 C16.3214622,4.54866456 16.3141019,4.58362598 16.2846608,4.6112271 C16.2699402,4.6259477 16.2515394,4.633308 16.2294585,4.64250837 C16.0951331,4.69955069 15.896405,4.66826942 15.7860005,4.57258553 C15.7768001,4.56522523 15.7583994,4.55050464 15.7418387,4.52474359 C15.7142376,4.48426195 15.7068773,4.44378031 15.7050372,4.41801926 C15.7142376,4.39777844 15.723438,4.37569754 15.7326384,4.35545672 C15.7510391,4.32601553 15.7823204,4.27817359 15.8393627,4.24505224 C15.9589675,4.17144926 16.1374548,4.18248971 16.242339,4.28737396 C16.3177821,4.36097695 16.3380229,4.46770128 16.3251424,4.53210389 L16.3251424,4.53210389 Z M11.6108711,1.88607653 C11.607191,1.9026372 11.5998307,1.93759862 11.5703895,1.96519974 C11.5556689,1.97992034 11.5372681,1.98728063 11.5151872,1.99648101 C11.3808618,2.05352332 11.1821337,2.02224205 11.0717292,1.92655817 C11.0625289,1.91919787 11.0441281,1.90447727 11.0275674,1.87871623 C10.9999663,1.83823459 10.992606,1.79775294 10.990766,1.7719919 C10.9999663,1.75175108 11.0091667,1.72967018 11.0183671,1.70942936 C11.0367678,1.67998817 11.0680491,1.63214622 11.1250914,1.59902488 C11.2446963,1.52542189 11.4231835,1.53646234 11.5280678,1.6413466 C11.6053509,1.71494958 11.6255917,1.82351399 11.6108711,1.88607653 L11.6108711,1.88607653 Z M9.06420778,0.644026131 C9.06052763,0.660586803 9.05316733,0.695548222 9.02372614,0.723149342 C9.00900554,0.737869939 8.9906048,0.745230238 8.9685239,0.754430611 C8.83419845,0.811472926 8.63547039,0.780191656 8.52506591,0.684507774 C8.51586553,0.677147475 8.49746479,0.662426878 8.48090411,0.636665833 C8.45330299,0.59618419 8.4459427,0.555702548 8.44410262,0.529941502 C8.45330299,0.509700681 8.46250337,0.487619785 8.47170374,0.467378964 C8.49010449,0.437937769 8.52138576,0.390095828 8.57842807,0.356974484 C8.69803292,0.283371498 8.87652017,0.294411946 8.98140442,0.399296202 C9.05684748,0.471059113 9.07892838,0.579623518 9.06420778,0.644026131 L9.06420778,0.644026131 Z" id="形状" fill="#FFFFFF"></path>
                    <path d="M5.8459172,6.2525737 L0.780191656,9.19669316 C0.395616052,9.42118227 0.158246421,9.83151892 0.156395806,10.276817 C0.154566272,10.7257952 0.393775978,11.1416521 0.782031731,11.3661412 L8.97404412,16.0951331 C9.36229988,16.3196222 9.84255936,16.3196222 10.2308151,16.093293 L15.2965407,13.1491735 C15.6811163,12.9246844 15.9184859,12.5143478 15.9203365,12.0690497 C15.922166,11.6200715 15.6829563,11.2042146 15.2947006,10.9797255 L7.10268819,6.25073362 C6.71259236,6.02624452 6.23233288,6.02624452 5.8459172,6.2525737 Z" id="路径" fill="#D4E4FC"></path>
                    <path d="M9.59966951,16.4042656 C9.35861973,16.4042656 9.11756995,16.3417031 8.90228121,16.2184181 L0.710268819,11.4894262 C0.277851274,11.239176 0.011040448,10.7754772 0.012871066,10.276817 C0.0147205973,9.78367697 0.279691349,9.32181823 0.70658867,9.07340816 L5.77231421,6.1292887 C6.20289168,5.87903854 6.73835341,5.87719847 7.17077096,6.12744862 L15.3646234,10.8564405 C15.797041,11.1066907 16.0638518,11.5703895 16.0620212,12.0690497 C16.0601716,12.5621897 15.7952009,13.0222084 15.3683036,13.2706185 L10.302578,16.2147379 C10.0854492,16.3417031 9.84255936,16.4042656 9.59966951,16.4042656 L9.59966951,16.4042656 Z M5.91584004,6.37401863 L0.850114494,9.31813808 C0.509700681,9.51502607 0.298080293,9.88304101 0.298080293,10.2749769 C0.29625202,10.672433 0.509700681,11.042288 0.853794643,11.2410161 L9.04580704,15.970008 C9.389901,16.168736 9.81495824,16.166896 10.1590522,15.9681679 L15.2247777,13.0240485 C15.5651916,12.8271605 15.7768119,12.4591455 15.7768119,12.0672096 C15.7786402,11.6697535 15.5651916,11.2998985 15.2210976,11.1011704 L7.02908521,6.37217855 C6.68683132,6.17529056 6.259934,6.17529056 5.91584004,6.37401863 Z" id="形状" fill="#0276F7"></path>
                    <path d="M9.60702981,15.1548549 C9.58310884,15.1548549 9.55918787,15.1493347 9.5352669,15.1364542 L0.888756061,10.1443316 C0.820673299,10.10569 0.796752328,10.0173665 0.837233971,9.94928369 C0.875875539,9.88120093 0.964199123,9.85727996 1.03228189,9.8977616 L9.67879272,14.8898842 C9.74687548,14.9285257 9.77079645,15.0168493 9.73031481,15.0849321 C9.70271369,15.1290939 9.65487175,15.1548549 9.60702981,15.1548549 L9.60702981,15.1548549 Z" id="路径" fill="#0276F7"></path>
                    <path d="M9.60702981,15.1548549 C9.55734779,15.1548549 9.50950585,15.1290939 9.4837448,15.0849321 C9.44326316,15.0168493 9.46718413,14.9303658 9.5352669,14.8898842 L15.0720516,11.6715936 C15.1401343,11.6311119 15.2266178,11.6550329 15.2670995,11.7231157 C15.3075811,11.7911984 15.2836601,11.8776819 15.2155774,11.9181636 L9.67879272,15.1364542 C9.65487175,15.1493347 9.63095078,15.1548549 9.60702981,15.1548549 Z" id="路径" fill="#0276F7"></path>
                    <path d="M9.60150958,15.8780043 C9.52238637,15.8780043 9.45798376,15.8136016 9.45982383,15.7344784 L9.46350398,15.0113291 C9.46350398,14.9322059 9.5279066,14.8696433 9.60518973,14.8696433 C9.68431294,14.8696433 9.74687548,14.934046 9.74687548,15.0131692 L9.74319533,15.7363185 C9.74503541,15.8136016 9.68063279,15.8780043 9.60150958,15.8780043 Z M5.82935653,7.4651829 C5.78151459,7.4651829 5.73367264,7.44126193 5.7079116,7.39710014 C5.66742996,7.33085745 5.68767078,7.24253387 5.75575354,7.20205222 L6.47154258,6.76595453 C6.53962535,6.72547289 6.62610886,6.74571371 6.6665905,6.81379647 C6.70707214,6.88003916 6.68683132,6.96836274 6.61874856,7.00884439 L5.90295951,7.44494208 C5.88087862,7.45966268 5.85511757,7.4651829 5.82935653,7.4651829 L5.82935653,7.4651829 Z M6.57274669,7.88103977 C6.52490475,7.88103977 6.47706281,7.8571188 6.45130176,7.81295701 C6.41082012,7.74671432 6.43106094,7.65839074 6.4991437,7.6179091 L7.21493275,7.1818114 C7.28301551,7.14132976 7.36949902,7.16157058 7.40998066,7.22965334 C7.4504623,7.29589603 7.43022148,7.38421962 7.36213872,7.42470126 L6.64634968,7.86079895 C6.62426878,7.87551955 6.59850774,7.88103977 6.57274669,7.88103977 L6.57274669,7.88103977 Z M7.31613685,8.29873672 C7.26829491,8.29873672 7.22045297,8.27481575 7.19469193,8.23065396 C7.15421028,8.16441127 7.1744511,8.07608769 7.24253387,8.03560605 L7.95832291,7.59950835 C8.02640567,7.55902671 8.11288918,7.57926753 8.15337082,7.64735029 C8.19385247,7.71359298 8.17361165,7.80191656 8.10552888,7.84239821 L7.38973984,8.2784959 C7.36765894,8.29137642 7.3418979,8.29873672 7.31613685,8.29873672 Z M8.05952702,8.7145936 C8.01168508,8.7145936 7.96384313,8.69067263 7.93808209,8.64651083 C7.89760045,8.58026815 7.91784127,8.49194456 7.98592403,8.45146292 L8.70171307,8.01536522 C8.76979584,7.97488358 8.85627934,7.9951244 8.89676099,8.06320717 C8.93724263,8.12944985 8.91700181,8.21777344 8.84891905,8.25825508 L8.13313,8.69435277 C8.11104911,8.7072333 8.08528806,8.7145936 8.05952702,8.7145936 Z M8.80291718,9.13045047 C8.75507524,9.13045047 8.7072333,9.1065295 8.68147225,9.06236771 C8.64099061,8.99612502 8.66123143,8.90780144 8.72931419,8.86731979 L9.44510324,8.4312221 C9.513186,8.39074046 9.59966951,8.41098128 9.64015115,8.47906404 C9.68063279,8.54530673 9.66039197,8.63363031 9.59230921,8.67411195 L8.87652017,9.11020965 C8.85443927,9.12493025 8.82867823,9.13045047 8.80291718,9.13045047 Z M9.54814742,9.54814742 C9.50030548,9.54814742 9.45246354,9.52422645 9.42670249,9.48006466 C9.38622085,9.41382197 9.40646167,9.32549838 9.47454443,9.28501674 L10.1903335,8.84891905 C10.2584162,8.8084374 10.3448997,8.82867823 10.3853814,8.89676099 C10.425863,8.96300368 10.4056222,9.05132726 10.3375394,9.0918089 L9.6217504,9.5279066 C9.59782943,9.54078712 9.57206839,9.54814742 9.54814742,9.54814742 Z" id="形状" fill="#0276F7"></path>
                    <path d="M10.2915376,9.96400429 C10.2436956,9.96400429 10.1958537,9.94008332 10.1700927,9.89592153 C10.129611,9.82967884 10.1498518,9.74135526 10.2179346,9.70087361 L10.9337236,9.26477592 C11.0018064,9.22429428 11.0882899,9.2445351 11.1287716,9.31261786 C11.1692532,9.37886055 11.1490124,9.46718413 11.0809296,9.50766578 L10.3651406,9.94376347 C10.3412196,9.95664399 10.3154586,9.96400429 10.2915376,9.96400429 Z" id="路径" fill="#0276F7"></path>
                    <path d="M11.0349277,10.3798612 C10.9870858,10.3798612 10.9392439,10.3559402 10.9134828,10.3117784 C10.8730012,10.2455357 10.893242,10.1572121 10.9613248,10.1167305 L11.6771138,9.68063279 C11.7451966,9.64015115 11.8316801,9.66039197 11.8721617,9.72847473 C11.9126434,9.79471742 11.8924025,9.88304101 11.8243198,9.92352265 L11.1085307,10.3596203 C11.0846098,10.3743409 11.0588487,10.3798612 11.0349277,10.3798612 Z" id="路径" fill="#0276F7"></path>
                    <path d="M11.7783179,10.7975581 C11.730476,10.7975581 11.682634,10.7736371 11.656873,10.7294754 C11.6163913,10.6632327 11.6366322,10.5749091 11.7047149,10.5344274 L12.420504,10.0983297 C12.4885867,10.0578481 12.5750702,10.0780889 12.6155519,10.1461717 C12.6560335,10.2124144 12.6357927,10.300738 12.5677099,10.3412196 L11.8519209,10.7773173 C11.8279999,10.7901978 11.804079,10.7975581 11.7783179,10.7975581 Z" id="路径" fill="#0276F7"></path>
                    <path d="M12.5217081,11.213415 C12.4738661,11.213415 12.4260242,11.189494 12.4002631,11.1453322 C12.3597815,11.0790895 12.3800223,10.990766 12.4481051,10.9502843 L13.1638941,10.5141866 C13.2319769,10.473705 13.3184604,10.4939458 13.358942,10.5620286 C13.3994237,10.6282712 13.3791829,10.7165948 13.3111001,10.7570765 L12.5953111,11.1931742 C12.5732302,11.2060547 12.5474691,11.213415 12.5217081,11.213415 Z" id="路径" fill="#0276F7"></path>
                    <path d="M13.2650982,11.6292719 C13.2172563,11.6292719 13.1694144,11.6053509 13.1436533,11.5611891 C13.1031717,11.4949464 13.1234125,11.4066228 13.1914952,11.3661412 L13.9072843,10.9300435 C13.9753671,10.8895618 14.0618506,10.9098027 14.1023322,10.9778854 C14.1428138,11.0441281 14.122573,11.1324517 14.0544903,11.1729333 L13.3387012,11.609031 C13.3166203,11.6237516 13.2908593,11.6292719 13.2650982,11.6292719 Z" id="路径" fill="#0276F7"></path>
                </g>
            </g>
        </g>
    </g>
</svg>