<?xml version="1.0" encoding="UTF-8"?>
<svg width="32px" height="25px" viewBox="0 0 32 25" version="1.1" xmlns="http://www.w3.org/2000/svg" xmlns:xlink="http://www.w3.org/1999/xlink">
    <title>汇聚节点</title>
    <g id="页面-1" stroke="none" stroke-width="1" fill="none" fill-rule="evenodd">
        <g id="项目管理-配置网络1" transform="translate(-334.000000, -287.000000)" fill-rule="nonzero">
            <g id="编组-12" transform="translate(237.000000, 180.000000)">
                <g id="汇聚节点" transform="translate(97.000000, 107.000000)">
                    <path d="M15.7120579,24.5238312 C15.6628513,24.5238312 15.6136446,24.5124758 15.5720082,24.4859799 L0.420148983,15.6931323 C0.333091085,15.6439256 0.280099322,15.5492975 0.280099322,15.4508842 L0.280099322,9.50823643 C0.280099322,9.40982316 0.333091085,9.31898014 0.416363857,9.26598837 L15.564438,0.340661337 C15.6098595,0.314165455 15.6590661,0.302810078 15.7082728,0.302810078 C15.7574794,0.302810078 15.806686,0.314165455 15.8521076,0.340661337 L30.9963966,9.26598837 C31.0834545,9.31519501 31.1326611,9.40603803 31.1326611,9.50823643 L31.1326611,15.4508842 C31.1326611,15.5492975 31.0796693,15.6439256 30.9926114,15.6931323 L15.8521076,24.4859799 C15.806686,24.5124758 15.7574794,24.5238312 15.7120579,24.5238312 L15.7120579,24.5238312 Z" id="路径" fill="#B5D6FB"></path>
                    <path d="M15.7120579,0.586694525 L30.8563469,9.51202156 L30.8563469,15.4546693 L28.3846596,16.8892321 L15.7120579,24.2437318 L3.0318859,16.8854469 L0.560198643,15.4508842 L0.560198643,9.50823643 L15.7120579,0.586694525 L15.7120579,0.586694525 Z M15.7120579,0.0264958818 C15.6136446,0.0264958818 15.5152313,0.0529917636 15.4281734,0.102198401 L0.276314196,9.03131056 C0.105983527,9.13350896 0,9.31519501 0,9.51202156 L0,15.4546693 C0,15.655281 0.105983527,15.8369671 0.280099322,15.9391655 L2.75178658,17.3737282 L15.4319586,24.7320131 C15.5190165,24.7812197 15.6174297,24.8077156 15.7120579,24.8077156 C15.8104712,24.8077156 15.9050993,24.7812197 15.9921572,24.7320131 L28.664759,17.3737282 L31.1364462,15.9429506 C31.310562,15.8445373 31.4165455,15.6590661 31.4165455,15.4584545 L31.4165455,9.51580669 C31.4165455,9.31898014 31.310562,9.13350896 31.1402313,9.03509569 L15.9959423,0.105983527 C15.9088844,0.0529917636 15.8104712,0.0264958818 15.7120579,0.0264958818 Z" id="形状" fill="#0276F7"></path>
                    <polygon id="路径" fill="#FFFFFF" points="0.560198643 9.51202156 15.7082728 18.3654312 30.8563469 9.51202156 15.7120579 0.586694525"></polygon>
                    <path d="M15.7082728,18.6455305 C15.6590661,18.6455305 15.6098595,18.6341751 15.5682231,18.6076793 L2.88805111,11.2493944 C2.75557171,11.1736919 2.71015019,10.9995761 2.78585271,10.8670967 C2.86155523,10.7346172 3.0318859,10.6854106 3.16815044,10.7648983 L15.7082728,18.0399104 L28.2408249,10.7611131 C28.3733043,10.6854106 28.5474201,10.7308321 28.6231226,10.8633115 C28.6988251,10.9957909 28.6534036,11.1661216 28.5209242,11.2456093 L15.8521076,18.6076793 C15.806686,18.63039 15.7574794,18.6455305 15.7082728,18.6455305 Z" id="路径" fill="#0276F7"></path>
                    <path d="M15.5000908,10.8860223 L12.1464692,8.94803779 C12.0896923,8.98967418 12.0291303,9.03131056 11.9609981,9.07294695 C11.8928658,9.11079821 11.8247335,9.14486434 11.7528161,9.17893047 L15.1064377,11.116915 C15.1594295,11.0752786 15.2199915,11.0336422 15.2881238,10.9957909 C15.3562561,10.9541546 15.4243883,10.9200884 15.5000908,10.8860223 M18.6758115,8.1039547 C18.4903404,8.09259932 18.3086543,8.06231831 18.1345385,8.02068193 L16.9270833,10.666485 C17.1125545,10.6778404 17.2942406,10.7081214 17.4683563,10.7497578 L18.6758115,8.1039547 M16.9422238,7.10089632 L12.3773619,7.80871487 C12.4530644,7.90712815 12.5022711,8.01311168 12.5249818,8.1190952 L17.0898438,7.41127665 C17.0141412,7.31286337 16.9649346,7.20687984 16.9422238,7.10089632" id="形状" fill="#0276F7"></path>
                    <path d="M20.3034157,6.1508297 C19.5274649,5.70418484 18.2745882,5.70039971 17.4986374,6.1508297 C17.0519925,6.40821827 16.8665213,6.76402011 16.9384387,7.10089632 C16.9611495,7.20687984 17.0103561,7.31286337 17.0822735,7.41506177 C17.1806868,7.54754118 17.3207364,7.66866521 17.5062076,7.77843387 C17.6916788,7.88441739 17.9036458,7.96769016 18.1307534,8.02446705 C18.3048692,8.06610344 18.4865552,8.09638445 18.6720264,8.10773983 C19.2587209,8.14937621 19.8681262,8.03960756 20.3147711,7.78221899 C21.0907219,7.32800388 21.0831516,6.59747456 20.3034157,6.1508297 M11.9496427,7.44912791 C11.1699067,6.99869792 9.92081516,6.99869792 9.14486434,7.44912791 C8.36891352,7.8995579 8.37648377,8.62251696 9.15243459,9.07294695 C9.86403828,9.48552568 10.9730802,9.51959181 11.749031,9.17893047 C11.8209484,9.14864947 11.8928658,9.11079821 11.9572129,9.07294695 C12.0253452,9.03509569 12.0859072,8.9934593 12.1426841,8.94803779 C12.4568496,8.70578973 12.5817587,8.40676478 12.5211967,8.1190952 C12.4984859,8.01311168 12.4492793,7.90712815 12.3735768,7.80871487 C12.2789486,7.68002059 12.1351139,7.55511143 11.9496427,7.44912791 M18.0929021,10.9957909 C17.907431,10.8898074 17.6954639,10.8065346 17.4683563,10.7497578 C17.2942406,10.7081214 17.1125545,10.6778404 16.9270833,10.666485 C16.4312318,10.6324188 15.9164547,10.7043362 15.5000908,10.8860223 C15.4243883,10.9200884 15.3562561,10.9541546 15.2881238,10.9920058 C15.2199915,11.0298571 15.1632146,11.0714935 15.1064377,11.1131298 C14.5235283,11.5635598 14.5878755,12.2070312 15.2994792,12.61961 C16.07543,13.0662548 17.3283067,13.07004 18.1042575,12.61961 C18.8764232,12.16918 18.868853,11.4424358 18.0929021,10.9957909" id="形状" fill="#0276F7"></path>
                </g>
            </g>
        </g>
    </g>
</svg>